<?xml version="1.0" encoding="utf-8"?><!-- Uploaded to: SVG Repo, www.svgrepo.com, Generator: SVG Repo Mixer Tools -->
<svg width="800px" height="800px" viewBox="0 0 24 24" fill="none" xmlns="http://www.w3.org/2000/svg">
<path d="M13 13C14.1046 13 15 12.1046 15 11C15 9.89543 14.1046 9 13 9C11.8954 9 11 9.89543 11 11C11 12.1046 11.8954 13 13 13Z" fill="#1F2328"/>
<path fill-rule="evenodd" clip-rule="evenodd" d="M8 11C8 8.23858 10.2386 6 13 6C15.7614 6 18 8.23858 18 11C18 13.7614 15.7614 16 13 16C10.2386 16 8 13.7614 8 11ZM13 7.5C11.067 7.5 9.5 9.067 9.5 11C9.5 12.933 11.067 14.5 13 14.5C14.933 14.5 16.5 12.933 16.5 11C16.5 9.067 14.933 7.5 13 7.5Z" fill="#1F2328"/>
<path fill-rule="evenodd" clip-rule="evenodd" d="M5 3H21V19H5V3ZM6.5 4.5H19.5V17.5H6.5V4.5Z" fill="#1F2328"/>
<path d="M2 6V22H18V20.5H3.5V6H2Z" fill="#1F2328"/>
</svg>