<?xml version="1.0" standalone="no"?>
<!DOCTYPE svg PUBLIC "-//W3C//DTD SVG 20010904//EN"
 "http://www.w3.org/TR/2001/REC-SVG-20010904/DTD/svg10.dtd">
<svg version="1.0" xmlns="http://www.w3.org/2000/svg"
 width="512.000000pt" height="512.000000pt" viewBox="0 0 512.000000 512.000000"
 preserveAspectRatio="xMidYMid meet">

<g transform="translate(0.000000,512.000000) scale(0.100000,-0.100000)"
fill="#000000" stroke="none">
<path d="M842 5099 c-26 -13 -55 -39 -70 -62 -25 -38 -27 -49 -30 -174 l-4
-133 -124 0 c-105 0 -131 -3 -164 -20 -49 -25 -77 -64 -90 -126 -7 -33 -10
-413 -8 -1137 l3 -1089 24 -19 c30 -25 76 -24 101 1 20 20 20 33 20 1111 0
732 3 1097 10 1110 10 17 22 19 120 19 l110 0 0 -1895 c0 -2061 -3 -1933 53
-1993 51 -55 -17 -52 1256 -52 l1181 0 6 -27 c11 -52 37 -128 55 -165 11 -21
19 -40 19 -43 0 -3 -628 -5 -1395 -5 -1368 0 -1394 0 -1405 19 -7 13 -10 294
-10 840 l0 820 -22 21 c-45 42 -111 15 -123 -52 -3 -18 -5 -400 -3 -848 l3
-815 27 -47 c19 -32 41 -52 71 -67 l43 -21 1465 0 1465 0 35 -36 c74 -78 212
-155 340 -190 88 -25 290 -25 379 -1 274 73 492 291 560 562 26 102 28 266 4
363 -59 242 -236 448 -463 541 l-66 28 -5 811 c-5 796 -5 811 -25 826 -42 32
-96 15 -114 -35 -8 -22 -11 -266 -11 -803 l0 -771 -93 -2 c-382 -8 -703 -307
-744 -692 l-6 -61 -1161 2 -1161 3 -3 2074 c-1 1527 1 2077 9 2087 10 12 269
14 1583 12 l1571 -3 5 -778 5 -779 24 -19 c30 -25 76 -24 101 1 20 20 20 33
20 810 0 661 -2 795 -14 818 -19 36 -65 78 -99 91 -20 8 -520 11 -1620 11
l-1592 0 -43 -21z m3311 -3725 c208 -53 388 -236 442 -449 20 -79 20 -227 0
-307 -57 -218 -253 -407 -471 -453 -144 -31 -291 -9 -426 62 -137 72 -250 206
-299 354 -32 97 -34 283 -5 369 35 103 88 191 157 259 166 165 378 223 602
165z"/>
<path d="M4172 1023 c-7 -3 -67 -72 -133 -154 -66 -82 -122 -149 -125 -149 -3
0 -30 20 -58 45 -60 51 -102 59 -136 25 -37 -37 -27 -78 33 -133 89 -84 148
-127 173 -127 32 0 44 12 212 223 153 191 163 214 119 255 -22 21 -56 27 -85
15z"/>
<path d="M1232 4597 c-31 -33 -29 -80 4 -106 27 -21 28 -21 1246 -21 l1219 0
24 25 c14 13 25 36 25 50 0 14 -11 37 -25 50 l-24 25 -1224 0 -1224 0 -21 -23z"/>
<path d="M1693 4260 c-45 -18 -55 -72 -22 -114 l20 -26 785 0 c771 0 784 0
804 20 33 33 30 75 -6 108 l-25 22 -767 -1 c-422 0 -777 -4 -789 -9z"/>
<path d="M1773 3833 c-10 -10 -83 -96 -162 -191 -80 -94 -147 -172 -150 -172
-3 0 -39 27 -79 60 -50 41 -83 60 -101 60 -37 0 -71 -38 -71 -78 0 -28 13 -43
112 -127 116 -100 143 -114 177 -96 31 17 390 448 397 477 15 61 -79 111 -123
67z"/>
<path d="M2168 3806 c-41 -31 -37 -113 7 -130 9 -3 75 -6 146 -6 125 0 131 1
154 25 14 13 25 36 25 50 0 14 -11 37 -25 50 -23 24 -29 25 -157 25 -93 -1
-138 -5 -150 -14z"/>
<path d="M2732 3800 c-30 -28 -30 -82 0 -110 21 -20 33 -20 489 -20 457 0 467
0 493 21 36 28 36 80 0 108 -26 21 -36 21 -493 21 -456 0 -468 0 -489 -20z"/>
<path d="M2185 3460 c-51 -20 -65 -90 -24 -122 20 -17 57 -18 479 -18 l459 0
20 26 c12 15 21 33 21 40 0 26 -23 62 -47 73 -29 13 -876 15 -908 1z"/>
<path d="M1793 3134 c-7 -3 -81 -87 -165 -187 -83 -100 -155 -186 -159 -191
-5 -5 -38 16 -76 48 -37 32 -78 62 -91 67 -51 19 -103 -35 -89 -92 4 -15 51
-61 117 -117 121 -101 149 -111 193 -69 26 23 316 369 356 423 25 34 23 81 -3
103 -16 13 -66 22 -83 15z"/>
<path d="M2155 3080 c-25 -28 -23 -76 4 -103 l22 -22 475 0 476 0 19 24 c25
30 24 76 -1 101 -19 19 -33 20 -498 20 -467 0 -479 0 -497 -20z"/>
<path d="M3400 3080 c-27 -27 -26 -81 1 -106 19 -17 37 -19 161 -19 135 0 140
1 159 24 25 30 24 76 -1 101 -18 18 -33 20 -160 20 -127 0 -142 -2 -160 -20z"/>
<path d="M2167 2738 c-42 -33 -37 -106 9 -127 17 -8 159 -11 470 -11 l445 0
24 25 c14 13 25 36 25 50 0 14 -11 37 -25 50 l-24 25 -454 0 c-347 0 -457 -3
-470 -12z"/>
<path d="M1754 2378 c-23 -24 -96 -109 -164 -190 -67 -82 -126 -148 -130 -148
-5 0 -41 27 -80 60 -78 65 -102 72 -144 39 -22 -17 -26 -28 -24 -57 3 -32 15
-47 110 -129 120 -103 146 -116 186 -86 43 32 381 441 388 469 10 38 -24 78
-67 82 -29 2 -40 -4 -75 -40z"/>
<path d="M2166 2368 c-36 -33 -39 -75 -6 -108 20 -20 33 -20 778 -20 l759 0
21 23 c29 31 28 72 -3 102 l-24 25 -750 0 -750 0 -25 -22z"/>
<path d="M2194 2033 c-53 -10 -75 -83 -39 -123 16 -18 31 -20 142 -20 110 0
125 2 143 20 38 38 22 100 -31 119 -30 10 -169 13 -215 4z"/>
<path d="M2624 2026 c-48 -21 -60 -80 -24 -116 19 -19 33 -20 259 -20 l240 0
20 26 c27 35 26 57 -3 91 l-24 28 -219 2 c-168 2 -225 0 -249 -11z"/>
<path d="M1798 1703 c-10 -2 -83 -84 -164 -181 -81 -97 -153 -183 -160 -191
-10 -11 -24 -4 -87 48 -56 46 -81 61 -105 61 -54 0 -86 -51 -66 -103 3 -9 54
-56 114 -106 159 -135 136 -143 366 132 102 122 191 232 196 244 14 30 -5 77
-38 92 -26 11 -28 12 -56 4z"/>
<path d="M2161 1652 c-33 -26 -31 -79 3 -109 l27 -23 508 0 c499 0 509 0 535
21 33 26 36 79 6 109 -19 19 -33 20 -539 20 -480 0 -520 -1 -540 -18z"/>
<path d="M2173 1308 c-46 -22 -45 -114 2 -132 22 -8 718 -8 740 0 10 4 23 21
30 37 16 39 3 80 -31 96 -33 15 -709 14 -741 -1z"/>
</g>
</svg>
