<?xml version="1.0" standalone="no"?>
<!DOCTYPE svg PUBLIC "-//W3C//DTD SVG 20010904//EN"
 "http://www.w3.org/TR/2001/REC-SVG-20010904/DTD/svg10.dtd">
<svg version="1.0" xmlns="http://www.w3.org/2000/svg"
 width="512.000000pt" height="512.000000pt" viewBox="0 0 512.000000 512.000000"
 preserveAspectRatio="xMidYMid meet">

<g transform="translate(0.000000,512.000000) scale(0.100000,-0.100000)"
fill="#000000" stroke="none">
<path d="M2510 5113 c-8 -3 -62 -54 -120 -112 -199 -202 -438 -335 -822 -459
-318 -103 -761 -180 -1048 -183 -150 -1 -196 -10 -233 -47 l-32 -32 0 -968 c0
-1076 -1 -1050 70 -1327 207 -804 895 -1492 1870 -1870 140 -54 331 -115 362
-115 34 0 255 73 403 133 961 387 1630 1069 1829 1863 68 270 66 237 66 1311
l0 973 -32 32 c-37 36 -83 46 -229 47 -282 3 -742 82 -1052 183 -385 124 -624
258 -824 461 -99 101 -110 110 -150 113 -24 2 -50 1 -58 -3z m244 -477 c240
-171 596 -321 991 -416 243 -59 462 -92 773 -116 l83 -6 -4 -902 c-3 -863 -5
-905 -24 -1002 -132 -646 -535 -1172 -1206 -1578 -185 -112 -478 -245 -703
-320 l-110 -36 -120 41 c-391 134 -765 336 -1052 565 -466 374 -734 801 -850
1354 -13 64 -16 208 -19 977 l-4 901 88 6 c597 43 1130 180 1533 393 152 81
357 225 409 287 12 14 20 10 75 -38 33 -29 96 -79 140 -110z"/>
<path d="M2485 3579 c-157 -19 -295 -113 -375 -254 -50 -89 -62 -145 -67 -332
l-6 -173 -69 0 c-84 0 -131 -18 -158 -62 -19 -32 -20 -49 -20 -581 0 -603 -2
-584 60 -621 25 -14 96 -16 707 -16 733 1 706 -1 744 56 18 28 19 52 19 579 0
417 -3 556 -13 574 -25 49 -62 66 -152 69 l-83 4 -5 176 c-5 189 -17 244 -71
336 -104 176 -303 271 -511 245z m195 -285 c54 -29 98 -82 118 -143 7 -20 12
-96 12 -182 l0 -149 -255 0 -255 0 0 149 c0 158 7 193 49 252 74 106 214 136
331 73z m390 -1119 l0 -385 -515 0 -515 0 0 385 0 385 515 0 515 0 0 -385z"/>
</g>
</svg>
