<svg width="18" height="17" viewBox="0 0 18 17" fill="none" xmlns="http://www.w3.org/2000/svg">
<path d="M8.55718 0.699924C8.78445 0.269184 9.40134 0.269185 9.6286 0.699925L11.954 5.10742C12.0417 5.27353 12.2014 5.38958 12.3865 5.4216L17.2968 6.27122C17.7767 6.35425 17.9673 6.94095 17.6279 7.2902L14.1547 10.8638C14.0238 10.9985 13.9628 11.1863 13.9896 11.3722L14.6989 16.3047C14.7682 16.7868 14.2692 17.1494 13.8321 16.9345L9.36016 14.7356C9.19162 14.6527 8.99417 14.6527 8.82563 14.7356L4.35366 16.9345C3.91662 17.1494 3.41755 16.7868 3.48687 16.3047L4.19622 11.3722C4.22296 11.1863 4.16194 10.9985 4.03105 10.8638L0.557867 7.2902C0.218436 6.94095 0.409068 6.35425 0.888953 6.27122L5.79932 5.4216C5.98438 5.38958 6.14412 5.27353 6.23176 5.10742L8.55718 0.699924Z" fill="#1A1A1A"/>
</svg>
